<svg xmlns="http://www.w3.org/2000/svg" xmlns:xlink="http://www.w3.org/1999/xlink" width="100" zoomAndPan="magnify" viewBox="0 0 75 74.999997" height="100" preserveAspectRatio="xMidYMid meet" version="1.0"><defs><clipPath id="c5e78babb1"><path d="M 37.5 0 C 16.789062 0 0 16.789062 0 37.5 C 0 58.210938 16.789062 75 37.5 75 C 58.210938 75 75 58.210938 75 37.5 C 75 16.789062 58.210938 0 37.5 0 Z M 37.5 0 " clip-rule="nonzero"/></clipPath><clipPath id="686136d897"><path d="M 29 14 L 48 14 L 48 60 L 29 60 Z M 29 14 " clip-rule="nonzero"/></clipPath><clipPath id="6ad74a52d8"><path d="M 20.421875 53.234375 L 32.957031 13.9375 L 57.964844 21.914062 L 45.429688 61.214844 Z M 20.421875 53.234375 " clip-rule="nonzero"/></clipPath><clipPath id="b0ca7fae44"><path d="M 20.421875 53.234375 L 32.957031 13.9375 L 57.964844 21.914062 L 45.429688 61.214844 Z M 20.421875 53.234375 " clip-rule="nonzero"/></clipPath><clipPath id="0eabf43262"><path d="M 12 4 L 75 4 L 75 36 L 12 36 Z M 12 4 " clip-rule="nonzero"/></clipPath><clipPath id="39254d0f58"><path d="M 14.628906 39.019531 L 9.929688 28.800781 L 71.933594 0.277344 L 76.632812 10.5 Z M 14.628906 39.019531 " clip-rule="nonzero"/></clipPath><clipPath id="935f71e295"><path d="M 14.628906 39.019531 L 9.929688 28.800781 L 71.933594 0.277344 L 76.632812 10.5 Z M 14.628906 39.019531 " clip-rule="nonzero"/></clipPath></defs><g clip-path="url(#c5e78babb1)"><path stroke-linecap="butt" transform="matrix(0.75, 0, 0, 0.75, 0.0000015, -0.000001)" fill="none" stroke-linejoin="miter" d="M 50.000002 0.00000133333 C 22.385416 0.00000133333 -0.000002 22.38542 -0.000002 50.000005 C -0.000002 77.614591 22.385416 100.00001 50.000002 100.00001 C 77.614588 100.00001 100.000006 77.614591 100.000006 50.000005 C 100.000006 22.38542 77.614588 0.00000133333 50.000002 0.00000133333 Z M 50.000002 0.00000133333 " stroke="#38b6ff" stroke-width="16" stroke-opacity="1" stroke-miterlimit="4"/></g><g clip-path="url(#686136d897)"><g clip-path="url(#6ad74a52d8)"><g clip-path="url(#b0ca7fae44)"><path fill="#38b6ff" d="M 43.9375 54.417969 C 43.5625 54.664062 43.164062 54.863281 42.742188 55.015625 L 43.265625 54.824219 C 42.792969 54.992188 42.300781 55.097656 41.796875 55.148438 L 42.359375 55.097656 C 41.726562 55.152344 41.085938 55.117188 40.457031 55.007812 L 41.03125 55.109375 C 40.292969 54.976562 39.574219 54.738281 38.894531 54.414062 L 39.421875 54.664062 C 38.726562 54.328125 38.070312 53.90625 37.480469 53.40625 L 37.90625 53.773438 C 37.273438 53.230469 36.730469 52.59375 36.253906 51.910156 L 36.570312 52.367188 C 35.894531 51.386719 35.375 50.308594 34.964844 49.1875 L 35.15625 49.710938 C 34.410156 47.644531 34.039062 45.464844 33.765625 43.289062 C 33.679688 42.601562 33.605469 41.90625 33.542969 41.210938 L 33.59375 41.773438 C 33.222656 37.652344 33.28125 33.496094 33.761719 29.386719 C 33.898438 28.21875 34.066406 27.054688 34.273438 25.894531 L 34.171875 26.46875 C 34.605469 24.015625 35.191406 21.585938 35.925781 19.203125 C 36.136719 18.527344 36.355469 17.855469 36.589844 17.1875 C 36.769531 16.671875 36.699219 16.011719 36.449219 15.527344 C 36.203125 15.046875 35.703125 14.597656 35.179688 14.453125 C 34.65625 14.3125 34.023438 14.304688 33.519531 14.59375 C 33.015625 14.882812 32.640625 15.304688 32.445312 15.867188 C 31.195312 19.449219 30.316406 23.136719 29.730469 26.882812 C 29.175781 30.429688 28.933594 34.03125 29.019531 37.625 C 29.0625 39.585938 29.207031 41.546875 29.429688 43.496094 C 29.617188 45.140625 29.851562 46.789062 30.238281 48.402344 C 30.445312 49.257812 30.703125 50.09375 31.003906 50.921875 C 31.300781 51.742188 31.628906 52.542969 32.050781 53.308594 C 32.503906 54.128906 33.035156 54.917969 33.636719 55.636719 C 34.191406 56.292969 34.835938 56.875 35.523438 57.390625 C 36.222656 57.917969 36.996094 58.3125 37.796875 58.664062 C 38.40625 58.9375 39.050781 59.132812 39.707031 59.253906 C 40.539062 59.410156 41.34375 59.519531 42.1875 59.445312 C 42.691406 59.402344 43.1875 59.359375 43.675781 59.238281 C 44.167969 59.113281 44.632812 58.941406 45.089844 58.742188 C 45.382812 58.613281 45.664062 58.460938 45.929688 58.285156 C 46.191406 58.160156 46.40625 57.984375 46.574219 57.753906 C 46.78125 57.546875 46.925781 57.300781 47.007812 57.011719 C 47.167969 56.503906 47.136719 55.824219 46.867188 55.351562 C 46.597656 54.878906 46.152344 54.429688 45.59375 54.277344 C 45.074219 54.136719 44.40625 54.105469 43.9375 54.417969 Z M 43.9375 54.417969 " fill-opacity="1" fill-rule="nonzero"/></g></g></g><g clip-path="url(#0eabf43262)"><g clip-path="url(#39254d0f58)"><g clip-path="url(#935f71e295)"><path fill="#38b6ff" d="M 44.765625 22.46875 C 44.765625 22.46875 14.710938 38.984375 13.007812 35.285156 C 10.964844 30.84375 72.097656 0.0351562 74.480469 5.214844 C 76.863281 10.394531 44.765625 22.46875 44.765625 22.46875 Z M 44.765625 22.46875 " fill-opacity="1" fill-rule="evenodd"/></g></g></g></svg>